<svg width="256" height="27" viewBox="0 0 256 27" fill="none" xmlns="http://www.w3.org/2000/svg">
<path d="M0.46875 24V22.0312L3.01562 21.5938V3.67188L0.46875 3.23438V1.25H3.01562H7.125L14.4531 18.5156H14.5469L21.6406 1.25H28.5V3.23438L25.9531 3.67188V21.5938L28.5 22.0312V24H20.3281V22.0312L23.0156 21.5938V15V5.45312L22.9375 5.4375L15.5469 23.1875H13.5L5.85938 5.46875L5.78125 5.48438L5.89062 15V21.5938L8.64062 22.0312V24H0.46875ZM36.875 24V22.0312L39.4219 21.5938V15.7188L32.4219 3.53125L30.5469 3.23438V1.25H38.3906V3.23438L35.7969 3.53125L40.625 12.4688L40.9531 13.0781L40.9688 13.0469L41.2812 12.4688L46.3438 3.53125L43.6562 3.23438V1.25H51.3438V3.23438L49.3594 3.53125L42.4844 15.4844V21.5938L45.0312 22.0312V24H36.875ZM54.2344 26.4062V24H68.6406V26.4062H54.2344ZM71.8906 24V22.0312L74.4375 21.5938V3.67188L71.8906 3.23438V1.25H74.4375H77.5156H80.0625V3.23438L77.5156 3.67188V21.6406H85.5625L85.9219 18.0469H88.2812V24H71.8906ZM99.0469 24.3281C97.5781 24.3281 96.2604 24.0469 95.0938 23.4844C93.9271 22.9219 92.9323 22.1302 92.1094 21.1094C91.2969 20.0781 90.6719 18.8594 90.2344 17.4531C89.8073 16.0469 89.5938 14.4948 89.5938 12.7969V12.4688C89.5938 10.7812 89.8073 9.23438 90.2344 7.82812C90.6719 6.41146 91.2969 5.1875 92.1094 4.15625C92.9323 3.125 93.9271 2.32812 95.0938 1.76562C96.2604 1.20312 97.5781 0.921875 99.0469 0.921875C100.599 0.921875 101.964 1.20312 103.141 1.76562C104.318 2.32812 105.302 3.125 106.094 4.15625C106.896 5.1875 107.5 6.41146 107.906 7.82812C108.312 9.23438 108.516 10.7812 108.516 12.4688V12.7969C108.516 14.4948 108.312 16.0469 107.906 17.4531C107.5 18.8594 106.896 20.0781 106.094 21.1094C105.302 22.1302 104.318 22.9219 103.141 23.4844C101.964 24.0469 100.599 24.3281 99.0469 24.3281ZM99.0469 21.7656C100.557 21.7656 101.776 21.3906 102.703 20.6406C103.641 19.8906 104.328 18.8438 104.766 17.5C105.203 16.1458 105.422 14.5781 105.422 12.7969V12.4375C105.422 10.6667 105.198 9.11458 104.75 7.78125C104.312 6.4375 103.625 5.39062 102.688 4.64062C101.75 3.88021 100.536 3.5 99.0469 3.5C97.6823 3.5 96.526 3.88021 95.5781 4.64062C94.6302 5.40104 93.9115 6.45312 93.4219 7.79688C92.9323 9.13021 92.6875 10.6771 92.6875 12.4375V12.7969C92.6875 14.5677 92.9323 16.1302 93.4219 17.4844C93.9115 18.8281 94.6302 19.8802 95.5781 20.6406C96.526 21.3906 97.6823 21.7656 99.0469 21.7656ZM122.031 24.3281C119.927 24.3281 118.104 23.8438 116.562 22.875C115.021 21.8958 113.833 20.5417 113 18.8125C112.167 17.0833 111.75 15.0833 111.75 12.8125V12.4375C111.75 10.1458 112.167 8.14062 113 6.42188C113.844 4.69271 114.995 3.34375 116.453 2.375C117.911 1.40625 119.568 0.921875 121.422 0.921875C123.193 0.921875 124.693 1.125 125.922 1.53125C127.161 1.9375 128.219 2.48438 129.094 3.17188V7.76562H126.562L126.234 4.46875C125.724 4.13542 125.099 3.88542 124.359 3.71875C123.62 3.54167 122.745 3.45312 121.734 3.45312C120.432 3.45312 119.26 3.82812 118.219 4.57812C117.177 5.32812 116.354 6.375 115.75 7.71875C115.146 9.05208 114.844 10.6146 114.844 12.4062V12.8125C114.844 14.625 115.12 16.2083 115.672 17.5625C116.234 18.9062 117.052 19.9531 118.125 20.7031C119.198 21.4427 120.5 21.8125 122.031 21.8125C123.073 21.8125 123.953 21.724 124.672 21.5469C125.391 21.3594 126.026 21.1198 126.578 20.8281V15.4844L122.219 15.3281V13.0625H129.656V21.875C129 22.4896 128.057 23.0521 126.828 23.5625C125.609 24.0729 124.01 24.3281 122.031 24.3281ZM142.484 24.3281C141.016 24.3281 139.698 24.0469 138.531 23.4844C137.365 22.9219 136.37 22.1302 135.547 21.1094C134.734 20.0781 134.109 18.8594 133.672 17.4531C133.245 16.0469 133.031 14.4948 133.031 12.7969V12.4688C133.031 10.7812 133.245 9.23438 133.672 7.82812C134.109 6.41146 134.734 5.1875 135.547 4.15625C136.37 3.125 137.365 2.32812 138.531 1.76562C139.698 1.20312 141.016 0.921875 142.484 0.921875C144.036 0.921875 145.401 1.20312 146.578 1.76562C147.755 2.32812 148.74 3.125 149.531 4.15625C150.333 5.1875 150.938 6.41146 151.344 7.82812C151.75 9.23438 151.953 10.7812 151.953 12.4688V12.7969C151.953 14.4948 151.75 16.0469 151.344 17.4531C150.938 18.8594 150.333 20.0781 149.531 21.1094C148.74 22.1302 147.755 22.9219 146.578 23.4844C145.401 24.0469 144.036 24.3281 142.484 24.3281ZM142.484 21.7656C143.995 21.7656 145.214 21.3906 146.141 20.6406C147.078 19.8906 147.766 18.8438 148.203 17.5C148.641 16.1458 148.859 14.5781 148.859 12.7969V12.4375C148.859 10.6667 148.635 9.11458 148.188 7.78125C147.75 6.4375 147.062 5.39062 146.125 4.64062C145.188 3.88021 143.974 3.5 142.484 3.5C141.12 3.5 139.964 3.88021 139.016 4.64062C138.068 5.40104 137.349 6.45312 136.859 7.79688C136.37 9.13021 136.125 10.6771 136.125 12.4375V12.7969C136.125 14.5677 136.37 16.1302 136.859 17.4844C137.349 18.8281 138.068 19.8802 139.016 20.6406C139.964 21.3906 141.12 21.7656 142.484 21.7656ZM154.922 26.4062V24H169.328V26.4062H154.922ZM178.188 24V22.0312L180.734 21.5938V3.57812H175.578L175.125 6.73438H172.812V1.25H191.719V6.73438H189.438L188.969 3.57812H183.812V21.5938L186.359 22.0312V24H178.188ZM200.875 24V22.0312L203.422 21.5938V15.7188L196.422 3.53125L194.547 3.23438V1.25H202.391V3.23438L199.797 3.53125L204.625 12.4688L204.953 13.0781L204.969 13.0469L205.281 12.4688L210.344 3.53125L207.656 3.23438V1.25H215.344V3.23438L213.359 3.53125L206.484 15.4844V21.5938L209.031 22.0312V24H200.875ZM217.641 24V22.0312L220.188 21.5938V3.67188L217.641 3.23438V1.25H220.188H228.094C229.719 1.25 231.104 1.53646 232.25 2.10938C233.396 2.67188 234.271 3.46354 234.875 4.48438C235.479 5.50521 235.781 6.69792 235.781 8.0625C235.781 9.4375 235.479 10.6354 234.875 11.6562C234.271 12.6771 233.396 13.4688 232.25 14.0312C231.104 14.5938 229.719 14.875 228.094 14.875H223.266V21.5938L225.812 22.0312V24H217.641ZM223.266 12.4688H228.094C229.635 12.4688 230.786 12.0573 231.547 11.2344C232.318 10.401 232.703 9.35417 232.703 8.09375C232.703 6.83333 232.318 5.78125 231.547 4.9375C230.786 4.09375 229.635 3.67188 228.094 3.67188H223.266V12.4688ZM237.922 24V22.0312L240.469 21.5938V3.67188L237.922 3.23438V1.25H254.766V6.71875H252.297L251.953 3.625H243.547V11.0312H251.938V13.4531H243.547V21.6875H252.453L252.797 18.5469H255.25V24H237.922Z" fill="white"/>
</svg>
